<svg xmlns="http://www.w3.org/2000/svg" width="44" height="44" viewBox="0 0 44 44" fill="none">
  <path d="M27.8038 12.3886C27.8038 4.34937 22.0894 0.371094 22.0894 0.371094C22.0894 0.371094 16.3916 4.40998 16.3916 12.3886" fill="#6A6AD5"/>
  <path d="M27.8032 12.7579C27.5993 12.7579 27.434 12.5926 27.434 12.3887C27.434 5.51216 23.1138 1.65511 22.0944 0.839614C21.0805 1.66613 16.7658 5.57828 16.7658 12.3887C16.7658 12.5926 16.6004 12.7579 16.3965 12.7579C16.1927 12.7579 16.0273 12.5926 16.0273 12.3887C16.0273 4.31648 21.6425 0.239015 21.885 0.0682029C22.0117 -0.0199584 22.1825 -0.0254685 22.3093 0.0682029C22.3699 0.106773 28.1779 4.25035 28.1779 12.3887C28.1779 12.5926 28.0126 12.7579 27.8087 12.7579H27.8032Z" fill="#013C35"/>
  <path d="M32.899 19.3091C38.5858 13.6227 37.357 6.77367 37.357 6.77367C37.357 6.77367 30.4689 5.60002 24.8262 11.2423" fill="#6A6AD5"/>
  <path d="M32.9006 19.6785C32.8069 19.6785 32.7132 19.6399 32.6416 19.5683C32.4983 19.4251 32.4983 19.1881 32.6416 19.0449C37.4908 14.196 37.1767 8.39938 37.0334 7.099C35.7275 6.96125 29.9084 6.68024 25.0977 11.496C24.9545 11.6393 24.7175 11.6393 24.5743 11.496C24.431 11.3528 24.431 11.1159 24.5743 10.9726C30.2831 5.26415 37.1381 6.34963 37.4247 6.39922C37.579 6.42677 37.7002 6.54249 37.7278 6.69677C37.7388 6.7684 38.918 13.8048 33.1651 19.5628C33.0934 19.6344 32.9998 19.673 32.9061 19.673L32.9006 19.6785Z" fill="#013C35"/>
  <path d="M31.6094 27.8059C39.6492 27.8059 43.6277 22.092 43.6277 22.092C43.6277 22.092 39.5885 16.3945 31.6094 16.3945" fill="#6A6AD5"/>
  <path d="M31.6104 28.175C31.4065 28.175 31.2412 28.0097 31.2412 27.8058C31.2412 27.6019 31.4065 27.4366 31.6104 27.4366C38.4875 27.4366 42.3448 23.1167 43.1604 22.0974C42.3338 21.0835 38.4214 16.7691 31.6104 16.7691C31.4065 16.7691 31.2412 16.6038 31.2412 16.3999C31.2412 16.1961 31.4065 16.0308 31.6104 16.0308C39.6833 16.0308 43.761 21.6455 43.9318 21.888C44.02 22.0147 44.0255 22.1855 43.9318 22.3123C43.8933 22.3729 39.7494 28.1805 31.6104 28.1805V28.175Z" fill="#013C35"/>
  <path d="M24.6875 32.897C30.3743 38.5834 37.2238 37.3546 37.2238 37.3546C37.2238 37.3546 38.3976 30.467 32.7548 24.8247" fill="#6A6AD5"/>
  <path d="M35.638 37.8291C33.2024 37.8291 28.4909 37.2229 24.4297 33.162C24.2864 33.0188 24.2864 32.7818 24.4297 32.6386C24.573 32.4953 24.8099 32.4953 24.9532 32.6386C29.8024 37.4874 35.5995 37.1734 36.8999 37.0301C37.0322 35.7242 37.3187 29.9111 32.5026 25.0953C32.3593 24.952 32.3593 24.7151 32.5026 24.5718C32.6458 24.4285 32.8828 24.4285 33.0261 24.5718C38.7349 30.2802 37.6494 37.1348 37.5998 37.4213C37.5722 37.5756 37.4565 37.6968 37.3022 37.7244C37.2802 37.7244 36.663 37.8346 35.649 37.8346L35.638 37.8291Z" fill="#013C35"/>
  <path d="M16.2305 31.6359C16.2635 39.6751 21.9889 43.6313 21.9889 43.6313C21.9889 43.6313 27.6702 39.5649 27.6427 31.5918" fill="#6A6AD5"/>
  <path d="M21.99 43.9999C21.9183 43.9999 21.8412 43.9779 21.7806 43.9338C21.7199 43.8952 15.8954 39.7737 15.8623 31.6353C15.8623 31.4314 16.0276 31.2661 16.2315 31.2661C16.4354 31.2661 16.6007 31.4314 16.6007 31.6353C16.6283 38.4953 20.965 42.3524 21.9844 43.1679C22.9984 42.3359 27.2965 38.4072 27.269 31.5967C27.269 31.3928 27.4343 31.2275 27.6382 31.2275C27.8421 31.2275 28.0074 31.3928 28.0074 31.5967C28.0405 39.669 22.4418 43.7685 22.1994 43.9393C22.1332 43.9834 22.0671 43.9999 21.99 43.9999Z" fill="#013C35"/>
  <path d="M11.0992 24.6919C5.41236 30.3783 6.64119 37.2273 6.64119 37.2273C6.64119 37.2273 13.5293 38.401 19.172 32.7587" fill="#6A6AD5"/>
  <path d="M8.26664 37.7071C7.28577 37.7071 6.65758 37.6079 6.57492 37.5913C6.42063 37.5638 6.2994 37.4426 6.27184 37.2938C6.26082 37.2222 5.08158 30.1858 10.8345 24.4278C10.9778 24.2845 11.2147 24.2845 11.358 24.4278C11.5013 24.571 11.5013 24.808 11.358 24.9512C6.50879 29.8001 6.82289 35.5967 6.96616 36.8971C8.27215 37.0293 14.0912 37.3103 18.9019 32.5C19.0451 32.3568 19.2821 32.3568 19.4253 32.5C19.5686 32.6433 19.5686 32.8802 19.4253 33.0235C15.3531 37.0954 10.7023 37.7071 8.26112 37.7071H8.26664Z" fill="#013C35"/>
  <path d="M12.3885 16.1958C4.34868 16.1958 0.370117 21.9098 0.370117 21.9098C0.370117 21.9098 4.4093 27.6072 12.3885 27.6072" fill="#6A6AD5"/>
  <path d="M12.3896 27.9769C4.31679 27.9769 0.239033 22.3621 0.0682078 22.1197C-0.0199598 21.9929 -0.0254703 21.8221 0.0682078 21.6954C0.106781 21.6348 4.25066 15.8271 12.3896 15.8271C12.5935 15.8271 12.7588 15.9925 12.7588 16.1963C12.7588 16.4002 12.5935 16.5655 12.3896 16.5655C5.51256 16.5655 1.65522 20.8854 0.839671 21.9048C1.66624 22.9186 5.57868 27.233 12.3896 27.233C12.5935 27.233 12.7588 27.3983 12.7588 27.6022C12.7588 27.8061 12.5935 27.9714 12.3896 27.9714V27.9769Z" fill="#013C35"/>
  <path d="M19.3046 11.0998C13.6178 5.41341 6.7683 6.64216 6.7683 6.64216C6.7683 6.64216 5.59457 13.5298 11.2373 19.1721" fill="#6A6AD5"/>
  <path d="M11.2373 19.541C11.1436 19.541 11.0499 19.5024 10.9783 19.4307C5.26945 13.7223 6.35501 6.86776 6.4046 6.58124C6.43215 6.42695 6.55338 6.30573 6.70216 6.27818C6.7738 6.26716 13.8107 5.088 19.5691 10.8405C19.7124 10.9838 19.7124 11.2207 19.5691 11.364C19.4259 11.5073 19.1889 11.5073 19.0456 11.364C14.1964 6.51512 8.39939 6.82919 7.09892 6.97245C6.96667 8.27834 6.68012 14.0915 11.4963 18.9073C11.6395 19.0506 11.6395 19.2875 11.4963 19.4307C11.4246 19.5024 11.331 19.541 11.2373 19.541Z" fill="#013C35"/>
  <path d="M28.4697 17.91C30.988 12.1299 27.9407 8.14062 27.9407 8.14062C27.9407 8.14062 22.6561 8.59796 20.1709 14.3009" fill="#DE8AE3"/>
  <path d="M28.4707 18.2788C28.4211 18.2788 28.3715 18.2678 28.3219 18.2458C28.1346 18.1631 28.0464 17.9482 28.1291 17.7609C30.2451 12.901 28.2833 9.3415 27.7654 8.53702C26.7845 8.69682 22.5965 9.65557 20.5136 14.4493C20.4309 14.6367 20.216 14.7248 20.0287 14.6422C19.8413 14.5595 19.7531 14.3447 19.8358 14.1573C22.3761 8.31662 27.6882 7.79316 27.9086 7.77663C28.0354 7.7601 28.1566 7.82071 28.2338 7.91989C28.366 8.09071 31.3802 12.1516 28.8068 18.064C28.7462 18.2017 28.6085 18.2844 28.4652 18.2844L28.4707 18.2788Z" fill="#013C35"/>
  <path d="M29.4823 23.6066C35.329 21.2373 35.9461 16.2562 35.9461 16.2562C35.9461 16.2562 31.8518 12.884 26.0879 15.2203" fill="#DE8AE3"/>
  <path d="M29.4829 23.976C29.3396 23.976 29.1964 23.8879 29.1413 23.7446C29.0641 23.5573 29.1578 23.3369 29.3452 23.2652C34.3046 21.254 35.3571 17.3749 35.5444 16.4217C34.7344 15.8542 31.0699 13.6005 26.2262 15.5676C26.0389 15.6448 25.8185 15.5511 25.7468 15.3638C25.6697 15.1764 25.7634 14.956 25.9507 14.8844C31.8524 12.493 36.0128 15.8321 36.1837 15.9809C36.2829 16.0635 36.3324 16.1848 36.3159 16.3115C36.2884 16.5209 35.6051 21.5351 29.6262 23.9595C29.5821 23.976 29.5325 23.987 29.4884 23.987L29.4829 23.976Z" fill="#013C35"/>
  <path d="M26.1553 28.4338C31.9633 30.8968 35.9198 27.8111 35.9198 27.8111C35.9198 27.8111 35.4129 22.5325 29.6875 20.1025" fill="#DE8AE3"/>
  <path d="M30.6467 29.7618C29.2911 29.7618 27.7317 29.5028 26.0124 28.7699C25.8251 28.6928 25.7369 28.4724 25.814 28.2851C25.8967 28.0977 26.1116 28.0095 26.299 28.0867C31.1757 30.1585 34.719 28.1638 35.5235 27.6349C35.3527 26.6541 34.3553 22.4774 29.5446 20.4387C29.3573 20.3616 29.2691 20.1411 29.3462 19.9538C29.4289 19.7665 29.6438 19.6783 29.8312 19.7554C35.6943 22.2405 36.2674 27.5467 36.2894 27.7671C36.3005 27.8938 36.2509 28.0151 36.1462 28.0922C36.025 28.1859 33.9585 29.7507 30.6467 29.7507V29.7618Z" fill="#013C35"/>
  <path d="M20.3682 29.4811C22.7156 35.3328 27.6971 35.9664 27.6971 35.9664C27.6971 35.9664 31.0805 31.8835 28.7661 26.1089" fill="#DE8AE3"/>
  <path d="M27.6977 36.3362C27.6977 36.3362 27.6646 36.3362 27.6536 36.3362C27.4442 36.3086 22.4297 35.6088 20.0271 29.6194C19.9499 29.432 20.0436 29.2116 20.231 29.14C20.4183 29.0628 20.6388 29.1565 20.7104 29.3439C22.7052 34.3084 26.5846 35.3719 27.5324 35.5647C28.1054 34.7548 30.3647 31.1016 28.4195 26.2472C28.3424 26.0599 28.4361 25.8394 28.6234 25.7678C28.8108 25.6907 29.0312 25.7843 29.1028 25.9717C31.4779 31.8785 28.122 36.0276 27.9787 36.2039C27.9071 36.2921 27.8024 36.3362 27.6922 36.3362H27.6977Z" fill="#013C35"/>
  <path d="M15.5261 26.0923C13.0078 31.8724 16.0551 35.8617 16.0551 35.8617C16.0551 35.8617 21.3397 35.4043 23.8249 29.7014" fill="#DE8AE3"/>
  <path d="M16.0546 36.2364C15.9389 36.2364 15.8287 36.1813 15.7626 36.0931C15.6303 35.9223 12.6161 31.8614 15.1895 25.949C15.2721 25.7617 15.487 25.6735 15.6744 25.7562C15.8617 25.8388 15.9499 26.0537 15.8673 26.2411C13.7512 31.101 15.713 34.6605 16.2309 35.465C17.2118 35.3052 21.3998 34.3464 23.4827 29.5526C23.5654 29.3653 23.7803 29.2771 23.9676 29.3598C24.155 29.4424 24.2432 29.6573 24.1605 29.8447C21.6202 35.6854 16.3081 36.2088 16.0877 36.2253C16.0766 36.2253 16.0656 36.2253 16.0546 36.2253V36.2364Z" fill="#013C35"/>
  <path d="M14.5257 20.3179C8.657 22.6266 7.99023 27.6022 7.99023 27.6022C7.99023 27.6022 12.0515 31.0129 17.8375 28.7373" fill="#DE8AE3"/>
  <path d="M13.8322 29.8998C10.2063 29.8998 7.8809 27.9933 7.75416 27.8886C7.65497 27.8059 7.61089 27.6792 7.62742 27.558C7.65497 27.3486 8.39338 22.3399 14.3943 19.9816C14.5816 19.9045 14.7965 19.9981 14.8737 20.191C14.9508 20.3783 14.8572 20.5987 14.6643 20.6704C9.68282 22.632 8.59175 26.5 8.39889 27.4533C9.20342 28.0318 12.8403 30.3185 17.7061 28.401C17.8934 28.3294 18.1139 28.4175 18.1855 28.6104C18.2571 28.8032 18.169 29.0181 17.9761 29.0898C16.4662 29.6849 15.0721 29.9053 13.8322 29.9053V29.8998Z" fill="#013C35"/>
  <path d="M17.924 15.5185C12.149 12.9839 8.14844 16.0199 8.14844 16.0199C8.14844 16.0199 8.58928 21.3041 14.2871 23.8057" fill="#DE8AE3"/>
  <path d="M14.2925 24.1751C14.2429 24.1751 14.1933 24.1641 14.1437 24.142C8.3136 21.5853 7.80113 16.2736 7.78459 16.0477C7.77357 15.921 7.82867 15.7998 7.92786 15.7226C8.09869 15.5959 12.1709 12.5874 18.0727 15.1771C18.26 15.2598 18.3427 15.4747 18.2655 15.662C18.1829 15.8493 17.9624 15.932 17.7806 15.8549C12.8763 13.7059 9.3661 15.662 8.55055 16.191C8.71035 17.1663 9.65265 21.3594 14.4412 23.4588C14.6286 23.5414 14.7113 23.7563 14.6341 23.9437C14.5735 24.0814 14.4357 24.1641 14.2925 24.1641V24.1751Z" fill="#013C35"/>
  <path d="M23.6822 14.5325C21.3734 8.66428 16.3974 7.99756 16.3974 7.99756C16.3974 7.99756 12.9864 12.0585 15.2622 17.8441" fill="#DE8AE3"/>
  <path d="M15.2621 18.2131C15.1133 18.2131 14.9755 18.1249 14.9204 17.9761C12.5895 12.0528 15.9729 7.92576 16.1162 7.75495C16.1989 7.65577 16.3256 7.60618 16.4468 7.62822C16.6562 7.65577 21.6653 8.39412 24.0237 14.3946C24.1009 14.5819 24.0072 14.8023 23.8143 14.874C23.627 14.9456 23.4121 14.8574 23.3349 14.6646C21.3732 9.68348 17.5048 8.59248 16.5515 8.39963C15.9729 9.2041 13.6861 12.8408 15.6037 17.7117C15.6809 17.899 15.5872 18.1194 15.3943 18.191C15.3502 18.2076 15.3062 18.2186 15.2566 18.2186L15.2621 18.2131Z" fill="#013C35"/>
  <path d="M20.0325 15.4579C20.0325 15.4579 19.5971 14.6369 20.0159 13.1271C20.3796 11.8102 21.9336 10.1572 21.9336 10.1572L21.9446 10.1406C22.7657 10.9561 23.4985 11.8377 23.8898 12.9397C24.4353 14.4881 23.8567 15.557 23.8567 15.557" fill="#F89E47"/>
  <path d="M23.8568 15.937C23.7961 15.937 23.7355 15.9205 23.6804 15.8929C23.4986 15.7937 23.4325 15.5733 23.5316 15.3915C23.5482 15.3529 24.0221 14.4327 23.5427 13.0717C23.201 12.1075 22.5783 11.3306 21.9612 10.6859C21.5148 11.2038 20.6221 12.3224 20.3741 13.226C20.0104 14.5595 20.3576 15.2758 20.3631 15.2813C20.4568 15.4631 20.3907 15.6835 20.2088 15.7827C20.027 15.8819 19.8066 15.8103 19.7074 15.6284C19.6853 15.5899 19.2114 14.6642 19.6633 13.0277C20.0435 11.6391 21.603 9.97508 21.6691 9.90345C21.7352 9.83182 21.8399 9.78223 21.9391 9.78223C22.0328 9.78223 22.143 9.80978 22.2146 9.88141C22.9751 10.6363 23.8072 11.573 24.248 12.8238C24.8376 14.5099 24.2149 15.689 24.1929 15.7386C24.1268 15.8598 24 15.9315 23.8678 15.9315L23.8568 15.937Z" fill="#013C35"/>
  <path d="M25.2461 15.9976C25.2461 15.9976 25.5216 15.1105 26.8827 14.3391C28.0675 13.6668 30.3378 13.5952 30.3378 13.5952H30.3598C30.3598 14.7523 30.2606 15.8929 29.7537 16.9509C29.0428 18.4331 27.8801 18.7802 27.8801 18.7802" fill="#F89E47"/>
  <path d="M27.8797 19.1499C27.7199 19.1499 27.5711 19.0452 27.527 18.8854C27.4664 18.6871 27.5821 18.4832 27.775 18.4281C27.8135 18.4171 28.7944 18.0975 29.4226 16.7971C29.8634 15.8769 29.9736 14.8851 29.9902 13.9925C29.3124 14.0421 27.8852 14.2018 27.0696 14.6647C25.8739 15.3424 25.6093 16.1083 25.6038 16.1138C25.5377 16.3067 25.3283 16.4114 25.141 16.3508C24.9481 16.2902 24.8379 16.0863 24.8985 15.8934C24.9095 15.8494 25.2291 14.8575 26.7059 14.02C27.9568 13.3092 30.2381 13.2321 30.3318 13.2266C30.442 13.2266 30.5412 13.2596 30.6074 13.3313C30.679 13.4029 30.7286 13.4966 30.7286 13.5957C30.7286 14.6647 30.6569 15.921 30.0839 17.1112C29.3124 18.7201 28.034 19.1168 27.9789 19.1334C27.9458 19.1444 27.9072 19.1499 27.8742 19.1499H27.8797Z" fill="#013C35"/>
  <path d="M28.5416 20.0529C28.5416 20.0529 29.3626 19.6177 30.8725 20.0364C32.1895 20.4001 33.8427 21.9539 33.8427 21.9539L33.8592 21.9649C33.0436 22.786 32.162 23.5188 31.0599 23.91C29.5114 24.4555 28.4424 23.8769 28.4424 23.8769" fill="#F89E47"/>
  <path d="M29.7316 24.5161C28.8499 24.5161 28.2934 24.2241 28.2603 24.202C28.0784 24.1029 28.0123 23.8825 28.1115 23.7006C28.2107 23.5188 28.4311 23.4527 28.613 23.5519C28.6515 23.5684 29.5718 24.0367 30.9329 23.5629C31.8972 23.2212 32.6742 22.5986 33.3189 21.9815C32.8009 21.5352 31.6823 20.6425 30.7786 20.3946C29.445 20.0309 28.7287 20.378 28.7232 20.3836C28.5413 20.4827 28.3209 20.4111 28.2217 20.2293C28.128 20.0474 28.1942 19.827 28.376 19.7279C28.4146 19.7058 29.3458 19.232 30.9769 19.6838C32.3656 20.064 34.0298 21.6233 34.1014 21.6894C34.173 21.7556 34.2226 21.8603 34.2226 21.9594C34.2226 22.0586 34.1951 22.1633 34.1234 22.2349C33.3685 22.9953 32.4317 23.8274 31.1808 24.2682C30.6408 24.4555 30.1559 24.5216 29.7371 24.5216L29.7316 24.5161Z" fill="#013C35"/>
  <path d="M27.9996 25.249C27.9996 25.249 28.8868 25.5245 29.6582 26.8855C30.3305 28.0702 30.4022 30.3403 30.4022 30.3403V30.3624C29.245 30.3624 28.1043 30.2632 27.0463 29.7563C25.564 29.0455 25.2168 27.8828 25.2168 27.8828" fill="#F89E47"/>
  <path d="M30.3202 30.7321C29.2677 30.7321 28.0499 30.6495 26.8871 30.0875C25.2781 29.316 24.8813 28.0377 24.8648 27.9826C24.8042 27.7842 24.9199 27.5804 25.1128 27.5253C25.3112 27.4702 25.515 27.5804 25.5701 27.7732C25.5812 27.8118 25.9008 28.7926 27.2012 29.4207C28.127 29.8615 29.1134 29.9717 30.0061 29.9883C29.9565 29.3105 29.7967 27.8834 29.3338 27.0679C28.656 25.8722 27.8901 25.6078 27.8845 25.6023C27.6917 25.5361 27.587 25.3323 27.6476 25.1394C27.7082 24.9466 27.9121 24.8419 28.105 24.897C28.149 24.908 29.1409 25.2276 29.9785 26.7043C30.6894 27.9551 30.7665 30.2362 30.772 30.3299C30.772 30.4291 30.739 30.5338 30.6673 30.6054C30.5792 30.6991 30.4469 30.7266 30.3202 30.7266V30.7321Z" fill="#013C35"/>
  <path d="M23.945 28.544C23.945 28.544 24.3804 29.365 23.9616 30.8748C23.5979 32.1917 22.0439 33.8447 22.0439 33.8447L22.0329 33.8612C21.2118 33.0457 20.4789 32.1641 20.0877 31.0621C19.5422 29.5138 20.1208 28.4448 20.1208 28.4448" fill="#F89E47"/>
  <path d="M22.0392 34.2196C21.94 34.2196 21.8408 34.1865 21.7747 34.1204C21.0142 33.3655 20.1821 32.4288 19.7413 31.178C19.1517 29.492 19.7744 28.3128 19.7964 28.2632C19.8956 28.0814 20.116 28.0152 20.2979 28.1144C20.4797 28.2136 20.5458 28.434 20.4466 28.6158C20.4301 28.6544 19.9562 29.5746 20.4356 30.9356C20.7773 31.8999 21.4 32.6768 22.0171 33.3215C22.4635 32.8035 23.3562 31.685 23.6041 30.7813C23.9678 29.4479 23.6207 28.7316 23.6152 28.726C23.5215 28.5442 23.5876 28.3238 23.7695 28.2246C23.9513 28.1255 24.1717 28.1971 24.2709 28.3789C24.293 28.4175 24.7669 29.3432 24.315 30.9797C23.9348 32.3682 22.3753 34.0323 22.3092 34.1039C22.2431 34.1755 22.1384 34.2251 22.0392 34.2251C22.0392 34.2251 22.0392 34.2251 22.0337 34.2251L22.0392 34.2196Z" fill="#013C35"/>
  <path d="M18.7514 28.0048C18.7514 28.0048 18.4759 28.8919 17.1148 29.6633C15.9301 30.3355 13.6597 30.4072 13.6597 30.4072H13.6377C13.6377 29.25 13.7369 28.1095 14.2439 27.0515C14.9547 25.5693 16.1174 25.2222 16.1174 25.2222" fill="#F89E47"/>
  <path d="M13.6592 30.776C13.56 30.776 13.4608 30.7374 13.3947 30.6713C13.323 30.5997 13.2734 30.506 13.2734 30.4068C13.2734 29.3379 13.3396 28.0871 13.9182 26.8914C14.6896 25.2825 15.9681 24.8857 16.0232 24.8692C16.216 24.8086 16.4254 24.9243 16.4805 25.1172C16.5412 25.3155 16.4254 25.5194 16.2326 25.5745C16.194 25.5855 15.2131 25.9051 14.5849 27.2055C14.1441 28.1312 14.0339 29.1175 14.0174 30.0101C14.6951 29.9605 16.1224 29.8007 16.9379 29.3379C18.1337 28.6601 18.3982 27.8942 18.4037 27.8887C18.4698 27.6959 18.6737 27.5912 18.8666 27.6518C19.0594 27.7124 19.1697 27.9163 19.109 28.1091C19.098 28.1532 18.7784 29.145 17.3016 29.9826C16.0507 30.6934 13.7694 30.7705 13.6757 30.776H13.6647H13.6592Z" fill="#013C35"/>
  <path d="M15.4573 23.9491C15.4573 23.9491 14.6362 24.3844 13.1263 23.9657C11.8093 23.602 10.1562 22.0481 10.1562 22.0481L10.1396 22.0371C10.9552 21.2161 11.8369 20.4833 12.939 20.0921C14.4874 19.5466 15.5564 20.1251 15.5564 20.1251" fill="#F89E47"/>
  <path d="M14.366 24.5112C13.9968 24.5112 13.5449 24.4616 13.0269 24.3183C11.6383 23.9382 9.97412 22.3788 9.90248 22.3127C9.83084 22.2466 9.78125 22.1419 9.78125 22.0427C9.78125 21.9435 9.80881 21.8388 9.88044 21.7672C10.6354 21.0068 11.5722 20.1748 12.823 19.734C14.5092 19.1444 15.6885 19.767 15.7381 19.7891C15.9199 19.8882 15.986 20.1086 15.8869 20.2905C15.7877 20.4723 15.5673 20.5384 15.3854 20.4393C15.3468 20.4227 14.4266 19.9489 13.0655 20.4282C12.1012 20.7699 11.3242 21.3925 10.6795 22.0096C11.1919 22.4504 12.3161 23.3486 13.2198 23.5965C14.5533 23.9602 15.2697 23.6131 15.2752 23.6075C15.457 23.5139 15.6775 23.58 15.7767 23.7618C15.8703 23.9437 15.8042 24.1641 15.6224 24.2632C15.5948 24.2798 15.154 24.5002 14.3605 24.5002L14.366 24.5112Z" fill="#013C35"/>
  <path d="M15.9934 18.7535C15.9934 18.7535 15.1062 18.478 14.3347 17.117C13.6625 15.9323 13.5908 13.6622 13.5908 13.6622V13.6401C14.748 13.6401 15.8887 13.7393 16.9467 14.2462C18.429 14.957 18.7762 16.1197 18.7762 16.1197" fill="#F89E47"/>
  <path d="M15.9931 19.1221C15.9545 19.1221 15.9215 19.1221 15.8829 19.1055C15.8388 19.0945 14.8469 18.7749 14.0093 17.2982C13.2985 16.0474 13.2213 13.7663 13.2158 13.6726C13.2158 13.5734 13.2489 13.4632 13.3205 13.3971C13.4087 13.3089 13.5354 13.2759 13.6622 13.2759C14.7147 13.2759 15.938 13.3585 17.1007 13.9206C18.7098 14.692 19.1065 15.9703 19.1231 16.0254C19.1837 16.2238 19.0679 16.4276 18.8751 16.4827C18.6767 16.5378 18.4728 16.4276 18.4177 16.2348C18.4067 16.1962 18.0871 15.2154 16.7866 14.5873C15.8664 14.1465 14.8745 14.0363 13.9818 14.0197C14.0314 14.6975 14.1912 16.1246 14.6541 16.9401C15.3318 18.1358 16.0978 18.4003 16.1033 18.4058C16.2962 18.4719 16.4009 18.6758 16.3403 18.8686C16.2907 19.0229 16.1474 19.1276 15.9876 19.1276L15.9931 19.1221Z" fill="#013C35"/>
  <path d="M22.0001 28.7976C25.7556 28.7976 28.8001 25.7534 28.8001 21.9982C28.8001 18.2429 25.7556 15.1987 22.0001 15.1987C18.2446 15.1987 15.2002 18.2429 15.2002 21.9982C15.2002 25.7534 18.2446 28.7976 22.0001 28.7976Z" fill="#6A6AD5"/>
  <path d="M22.0002 29.1668C18.0492 29.1668 14.8311 25.9489 14.8311 21.9982C14.8311 18.0475 18.0492 14.8296 22.0002 14.8296C25.9512 14.8296 29.1693 18.0475 29.1693 21.9982C29.1693 25.9489 25.9512 29.1668 22.0002 29.1668ZM22.0002 15.5735C18.457 15.5735 15.5695 18.4552 15.5695 22.0037C15.5695 25.5522 18.4514 28.434 22.0002 28.434C25.5489 28.434 28.4309 25.5522 28.4309 22.0037C28.4309 18.4552 25.5489 15.5735 22.0002 15.5735Z" fill="#013C35"/>
  <path d="M21.9996 26.2301C24.3369 26.2301 26.2317 24.3355 26.2317 21.9983C26.2317 19.6612 24.3369 17.7666 21.9996 17.7666C19.6623 17.7666 17.7676 19.6612 17.7676 21.9983C17.7676 24.3355 19.6623 26.2301 21.9996 26.2301Z" fill="#DE8AE3"/>
  <path d="M22.0007 26.6048C19.4603 26.6048 17.3994 24.5385 17.3994 22.0039C17.3994 19.4693 19.4658 17.3975 22.0007 17.3975C24.5355 17.3975 26.6074 19.4637 26.6074 22.0039C26.6074 24.544 24.541 26.6048 22.0007 26.6048ZM22.0007 18.1358C19.8681 18.1358 18.1378 19.8715 18.1378 21.9984C18.1378 24.1253 19.8736 25.8609 22.0007 25.8609C24.1277 25.8609 25.8635 24.1253 25.8635 21.9984C25.8635 19.8715 24.1277 18.1358 22.0007 18.1358Z" fill="#013C35"/>
  <path d="M22.0002 23.7834C22.9863 23.7834 23.7856 22.9841 23.7856 21.9982C23.7856 21.0122 22.9863 20.2129 22.0002 20.2129C21.0142 20.2129 20.2148 21.0122 20.2148 21.9982C20.2148 22.9841 21.0142 23.7834 22.0002 23.7834Z" fill="#F89E47"/>
  <path d="M21.9993 24.1526C20.8146 24.1526 19.8447 23.1884 19.8447 21.9982C19.8447 20.808 20.8091 19.8438 21.9993 19.8438C23.1896 19.8438 24.1539 20.808 24.1539 21.9982C24.1539 23.1884 23.1896 24.1526 21.9993 24.1526ZM21.9993 20.5876C21.2223 20.5876 20.5886 21.2213 20.5886 22.0037C20.5886 22.7861 21.2223 23.4143 21.9993 23.4143C22.7763 23.4143 23.4155 22.7806 23.4155 22.0037C23.4155 21.2268 22.7818 20.5876 21.9993 20.5876Z" fill="#013C35"/>
</svg>